# xmcd
#
# Track frame offsets: 
#        150
#        11051
#        23297
#        35983
#        46955
#        57039
#        72223
#        84010
#        98209
#        110141
#        125738
#        139274
#        157871
#        179145
#        193494
#        205725
#        217701
#        228566
#        241766
#        254271
#
# Disc length: 3602 seconds
#
# Revision: 6
# Processed by: cddbd v1.5.2PL0 Copyright (c) Steve Scherf et al.
# Submitted via: ExactAudioCopy v1.1
#
DISCID=160e1014
DTITLE=Benny Goodman - CD06_B. Goodman_I Had To Do It
DYEAR=2005
DGENRE=Swing
TTITLE0=Swing Low, Sweet Chariot
TTITLE1=He Ain't Got Rhythm
TTITLE2=Never Should Have Told You
TTITLE3=This Years Kisses
TTITLE4=You Can Tell She Comes From Dixie
TTITLE5=Goodnight, My Love
TTITLE6=I Want To Be Happy
TTITLE7=Chloe
TTITLE8=Rosetta
TTITLE9=Peckin'
TTITLE10=Can't We Be Friends ¿
TTITLE11=Sing, Sing, Sing  [Part 1]
TTITLE12=Sing, Sing, Sing  [Part 2]
TTITLE13=Roll 'Em
TTITLE14=When It's Sleepy-Time Down South
TTITLE15=Afraid To Dream
TTITLE16=Changes
TTITLE17=Bob White
TTITLE18=Sugar Foot Stomp
TTITLE19=I Can't Give You Anything But Love, Baby
EXTD=
EXTT0=
EXTT1=
EXTT2=
EXTT3=
EXTT4=
EXTT5=
EXTT6=
EXTT7=
EXTT8=
EXTT9=
EXTT10=
EXTT11=
EXTT12=
EXTT13=
EXTT14=
EXTT15=
EXTT16=
EXTT17=
EXTT18=
EXTT19=
PLAYORDER=
